<svg width="187" height="230" viewBox="0 0 187 230" fill="none" xmlns="http://www.w3.org/2000/svg">
<path d="M0 5C0 2.23858 2.23858 0 5 0H182C184.761 0 187 2.23858 187 5V225C187 227.761 184.761 230 182 230H5C2.23858 230 0 227.761 0 225V5Z" fill="#5B5B5B" fill-opacity="0.6"/>
<path d="M81.25 119.75L90 130.25L102.25 114.5L118 135.5H69M125 139V90.0001C125 86.1151 121.85 83.0001 118 83.0001H69C67.1435 83.0001 65.363 83.7376 64.0503 85.0503C62.7375 86.3631 62 88.1435 62 90.0001V139C62 140.857 62.7375 142.637 64.0503 143.95C65.363 145.263 67.1435 146 69 146H118C119.857 146 121.637 145.263 122.95 143.95C124.262 142.637 125 140.857 125 139Z" fill="#F9F9F9"/>
<path d="M57.1934 33.4375V41.9336C57.1934 42.6042 57.2292 43.099 57.3008 43.418C57.3789 43.737 57.5189 44.0007 57.7207 44.209C57.903 44.3978 58.1081 44.5345 58.3359 44.6191C58.5703 44.7038 58.873 44.7559 59.2441 44.7754V45H54.7422V44.7754C55.1133 44.7559 55.4128 44.7038 55.6406 44.6191C55.875 44.5345 56.0833 44.3978 56.2656 44.209C56.4674 44.0007 56.6042 43.737 56.6758 43.418C56.7539 43.0924 56.793 42.5977 56.793 41.9336V34.7266C56.793 34.069 56.7539 33.5807 56.6758 33.2617C56.6042 32.9362 56.4674 32.6693 56.2656 32.4609C56.0898 32.2721 55.8848 32.1354 55.6504 32.0508C55.4225 31.9661 55.1198 31.9141 54.7422 31.8945V31.6699H58.502L66.4316 41.7871V34.7363C66.4316 34.0658 66.3926 33.571 66.3145 33.252C66.2428 32.9329 66.1061 32.6693 65.9043 32.4609C65.722 32.2721 65.5137 32.1354 65.2793 32.0508C65.0514 31.9661 64.752 31.9141 64.3809 31.8945V31.6699H68.8828V31.8945C68.2318 31.8945 67.724 32.0833 67.3594 32.4609C67.1576 32.6693 67.0176 32.9362 66.9395 33.2617C66.8678 33.5807 66.832 34.069 66.832 34.7266V45H66.3926L57.1934 33.4375Z" fill="white"/>
<path d="M69.9766 40.8789C69.9766 39.8242 70.3672 38.8835 71.1484 38.0566C72.099 37.054 73.235 36.5527 74.5566 36.5527C75.8783 36.5527 77.0111 37.054 77.9551 38.0566C78.7363 38.89 79.127 39.834 79.127 40.8887C79.127 41.9303 78.7559 42.8581 78.0137 43.6719C77.1022 44.6745 75.9499 45.1758 74.5566 45.1758C73.1634 45.1758 72.0078 44.6745 71.0898 43.6719C70.7318 43.2812 70.4551 42.8451 70.2598 42.3633C70.071 41.8815 69.9766 41.3867 69.9766 40.8789ZM71.7539 40.7715C71.7539 41.9043 72.0078 42.8646 72.5156 43.6523C73.0885 44.5312 73.7884 44.9707 74.6152 44.9707C74.9668 44.9707 75.3086 44.873 75.6406 44.6777C75.9727 44.4824 76.2591 44.209 76.5 43.8574C76.7539 43.4928 76.959 43.0371 77.1152 42.4902C77.2715 41.9368 77.3496 41.403 77.3496 40.8887C77.3496 40.3548 77.265 39.8177 77.0957 39.2773C76.9329 38.7305 76.7116 38.2617 76.4316 37.8711C75.8978 37.1354 75.2435 36.7676 74.4688 36.7676C73.7331 36.7676 73.0983 37.1549 72.5645 37.9297C72.0241 38.7044 71.7539 39.6517 71.7539 40.7715Z" fill="white"/>
<path d="M91.4512 31.6699V31.8945C91.0801 31.9141 90.7773 31.9661 90.543 32.0508C90.3151 32.1354 90.11 32.2721 89.9277 32.4609C89.6738 32.7214 89.5176 33.0827 89.459 33.5449C89.4199 33.89 89.4004 34.2871 89.4004 34.7363V41.9336C89.4004 42.474 89.4264 42.9004 89.4785 43.2129C89.5306 43.5254 89.6152 43.776 89.7324 43.9648C89.9017 44.2253 90.1198 44.4206 90.3867 44.5508C90.6536 44.6745 91.0085 44.7493 91.4512 44.7754V45H85.2109V44.7754C85.5885 44.7559 85.8913 44.7038 86.1191 44.6191C86.3535 44.528 86.5586 44.3913 86.7344 44.209C86.9427 44.0007 87.0827 43.737 87.1543 43.418C87.2259 43.099 87.2617 42.6042 87.2617 41.9336V34.7363C87.2617 34.0658 87.2259 33.571 87.1543 33.252C87.0827 32.9329 86.9427 32.6693 86.7344 32.4609C86.5586 32.2721 86.3535 32.1354 86.1191 32.0508C85.8848 31.9661 85.582 31.9141 85.2109 31.8945V31.6699H91.4512Z" fill="white"/>
<path d="M94.9863 36.5527C95.1035 37.0085 95.1784 37.4609 95.2109 37.9102C95.6211 37.474 96.0801 37.1387 96.5879 36.9043C97.1022 36.6699 97.6361 36.5527 98.1895 36.5527C98.8014 36.5527 99.3125 36.709 99.7227 37.0215C99.9701 37.2103 100.253 37.5391 100.572 38.0078C101.067 37.5065 101.565 37.1387 102.066 36.9043C102.568 36.6699 103.108 36.5527 103.688 36.5527C104.469 36.5527 105.104 36.7676 105.592 37.1973C106.087 37.6204 106.334 38.1771 106.334 38.8672V42.1777L106.344 42.9199C106.344 43.3626 106.37 43.6882 106.422 43.8965C106.474 44.0983 106.572 44.2676 106.715 44.4043C106.904 44.5801 107.242 44.7135 107.73 44.8047V45H103.424V44.8047C103.814 44.7526 104.091 44.681 104.254 44.5898C104.423 44.4922 104.563 44.3294 104.674 44.1016C104.745 43.9518 104.794 43.7272 104.82 43.4277C104.853 43.1217 104.869 42.6855 104.869 42.1191V40.2539C104.869 39.5312 104.846 39.0039 104.801 38.6719C104.755 38.3398 104.667 38.0566 104.537 37.8223C104.231 37.2689 103.704 36.9922 102.955 36.9922C102.148 36.9922 101.562 37.2917 101.197 37.8906C100.878 38.4049 100.719 39.2057 100.719 40.293V42.1777L100.729 42.9199C100.729 43.3626 100.755 43.6882 100.807 43.8965C100.859 44.0983 100.956 44.2676 101.1 44.4043C101.282 44.5801 101.62 44.7135 102.115 44.8047V45H97.8086V44.8047C98.1992 44.7526 98.4759 44.681 98.6387 44.5898C98.8079 44.4922 98.9479 44.3294 99.0586 44.1016C99.1302 43.9518 99.179 43.7272 99.2051 43.4277C99.2376 43.1217 99.2539 42.6855 99.2539 42.1191V40.3125C99.2539 39.5508 99.2279 38.9941 99.1758 38.6426C99.1302 38.2845 99.0391 37.9948 98.9023 37.7734C98.7591 37.5391 98.5573 37.3568 98.2969 37.2266C98.0365 37.0898 97.7435 37.0215 97.418 37.0215C97.0469 37.0215 96.6986 37.1094 96.373 37.2852C96.0475 37.4609 95.7904 37.6986 95.6016 37.998C95.4258 38.265 95.2988 38.5872 95.2207 38.9648C95.1491 39.3359 95.1133 39.8177 95.1133 40.4102V42.1973L95.123 42.9199C95.123 43.3626 95.1491 43.6882 95.2012 43.8965C95.2533 44.0983 95.3542 44.2676 95.5039 44.4043C95.6862 44.5801 96.0215 44.7135 96.5098 44.8047V45H92.2031V44.8047C92.5938 44.7526 92.8737 44.681 93.043 44.5898C93.2122 44.4922 93.349 44.3294 93.4531 44.1016C93.5247 43.9518 93.5736 43.7272 93.5996 43.4277C93.6322 43.1217 93.6484 42.6823 93.6484 42.1094V39.6973C93.6484 39.0267 93.6322 38.5579 93.5996 38.291C93.5671 38.0176 93.4954 37.7962 93.3848 37.627C93.2741 37.4447 93.1406 37.3145 92.9844 37.2363C92.8281 37.1517 92.6035 37.0996 92.3105 37.0801V36.8848L94.9863 36.5527Z" fill="white"/>
<path d="M116.549 44.0527L116.715 44.1504C116.48 44.834 115.943 45.1758 115.104 45.1758C114.641 45.1758 114.257 45.0618 113.951 44.834C113.749 44.6842 113.541 44.4238 113.326 44.0527C112.89 44.4434 112.561 44.7005 112.34 44.8242C111.917 45.0586 111.425 45.1758 110.865 45.1758C110.149 45.1758 109.579 45.0033 109.156 44.6582C108.74 44.3132 108.531 43.8477 108.531 43.2617C108.531 42.7214 108.704 42.2689 109.049 41.9043C109.244 41.7025 109.469 41.543 109.723 41.4258C109.977 41.3021 110.344 41.1784 110.826 41.0547C111.393 40.9115 111.809 40.791 112.076 40.6934C112.35 40.5957 112.577 40.4785 112.76 40.3418C112.968 40.1921 113.111 40.0163 113.189 39.8145C113.268 39.6126 113.307 39.3327 113.307 38.9746C113.307 38.2129 113.163 37.6562 112.877 37.3047C112.747 37.1419 112.577 37.0117 112.369 36.9141C112.167 36.8164 111.956 36.7676 111.734 36.7676C111.467 36.7676 111.23 36.8359 111.021 36.9727C110.813 37.1094 110.657 37.2982 110.553 37.5391L110.309 38.1055C110.178 38.4115 109.944 38.5645 109.605 38.5645C109.384 38.5645 109.199 38.4928 109.049 38.3496C108.899 38.1999 108.824 38.0143 108.824 37.793C108.824 37.4609 109.059 37.181 109.527 36.9531C109.781 36.8359 110.094 36.7415 110.465 36.6699C110.842 36.5918 111.21 36.5527 111.568 36.5527C111.972 36.5527 112.392 36.6048 112.828 36.709C113.264 36.8132 113.629 36.9466 113.922 37.1094C114.345 37.3503 114.609 37.6628 114.713 38.0469C114.765 38.2422 114.791 38.571 114.791 39.0332V42.6465C114.791 43.2585 114.817 43.6751 114.869 43.8965C114.98 44.3587 115.247 44.5898 115.67 44.5898C115.872 44.5898 116.028 44.554 116.139 44.4824C116.256 44.4108 116.393 44.2676 116.549 44.0527ZM113.326 40.2051C112.975 40.498 112.587 40.7552 112.164 40.9766C111.689 41.2305 111.36 41.4225 111.178 41.5527C110.995 41.6829 110.829 41.8392 110.68 42.0215C110.374 42.3991 110.221 42.8385 110.221 43.3398C110.221 43.7695 110.338 44.1243 110.572 44.4043C110.813 44.6842 111.116 44.8242 111.48 44.8242C111.799 44.8242 112.099 44.7266 112.379 44.5312C112.665 44.3294 112.88 44.0625 113.023 43.7305C113.225 43.2943 113.326 42.6628 113.326 41.8359V40.2051Z" fill="white"/>
<path d="M119.176 45.8301L119 45.8789C118.889 45.6966 118.779 45.5697 118.668 45.498C118.557 45.4264 118.421 45.3906 118.258 45.3906C117.984 45.3906 117.76 45.4948 117.584 45.7031C117.415 45.9115 117.33 46.1816 117.33 46.5137C117.33 47.041 117.594 47.474 118.121 47.8125C118.648 48.151 119.322 48.3203 120.143 48.3203C121.015 48.3203 121.718 48.1315 122.252 47.7539C122.792 47.3828 123.062 46.8978 123.062 46.2988C123.062 45.8171 122.883 45.446 122.525 45.1855C122.167 44.9316 121.656 44.8047 120.992 44.8047H119.439C118.801 44.8047 118.287 44.6549 117.896 44.3555C117.493 44.043 117.291 43.6686 117.291 43.2324C117.291 42.7702 117.506 42.4056 117.936 42.1387C118.157 42.0085 118.561 41.8685 119.146 41.7188C118.58 41.4583 118.141 41.1165 117.828 40.6934C117.516 40.2637 117.359 39.7917 117.359 39.2773C117.359 38.6198 117.604 38.0339 118.092 37.5195C118.378 37.2135 118.717 36.9759 119.107 36.8066C119.498 36.6374 119.898 36.5527 120.309 36.5527C120.934 36.5527 121.572 36.7741 122.223 37.2168C122.529 36.9759 122.802 36.8066 123.043 36.709C123.29 36.6048 123.557 36.5527 123.844 36.5527C124.163 36.5527 124.42 36.6211 124.615 36.7578C124.85 36.9271 124.967 37.1354 124.967 37.3828C124.967 37.5326 124.921 37.6595 124.83 37.7637C124.739 37.8613 124.625 37.9102 124.488 37.9102C124.28 37.9102 124.091 37.7995 123.922 37.5781L123.697 37.2852C123.574 37.1289 123.398 37.0508 123.17 37.0508C122.929 37.0508 122.675 37.1712 122.408 37.4121C122.936 38.0566 123.199 38.7207 123.199 39.4043C123.199 40.2572 122.822 40.931 122.066 41.4258C121.689 41.6732 121.282 41.8392 120.846 41.9238C120.715 41.9434 120.302 41.9759 119.605 42.0215C118.648 42.0801 118.17 42.347 118.17 42.8223C118.17 43.2389 118.577 43.4473 119.391 43.4473H121.002C121.568 43.4473 122.047 43.4993 122.438 43.6035C122.828 43.7012 123.17 43.8574 123.463 44.0723C124.036 44.4954 124.322 45.0911 124.322 45.8594C124.322 46.7057 123.99 47.3665 123.326 47.8418C122.643 48.3301 121.64 48.5742 120.318 48.5742C118.899 48.5742 117.893 48.2878 117.301 47.7148C116.923 47.3438 116.734 46.8815 116.734 46.3281C116.734 45.8919 116.874 45.5208 117.154 45.2148C117.434 44.9154 117.776 44.7656 118.18 44.7656C118.473 44.7656 118.71 44.8535 118.893 45.0293C119.081 45.2051 119.176 45.4362 119.176 45.7227V45.8301ZM118.746 39.3457C118.746 40.0488 118.893 40.6217 119.186 41.0645C119.485 41.5072 119.866 41.7285 120.328 41.7285C120.797 41.7285 121.161 41.5104 121.422 41.0742C121.682 40.6315 121.812 40.0195 121.812 39.2383C121.812 38.431 121.643 37.7865 121.305 37.3047C121.057 36.9466 120.738 36.7676 120.348 36.7676C119.879 36.7676 119.501 37.002 119.215 37.4707C119.072 37.7051 118.958 37.9915 118.873 38.3301C118.788 38.6686 118.746 39.0072 118.746 39.3457Z" fill="white"/>
<path d="M127.037 39.6875C127.011 40.0065 126.998 40.2376 126.998 40.3809C126.998 40.9473 127.079 41.5007 127.242 42.041C127.411 42.5814 127.639 43.0306 127.926 43.3887C128.219 43.7533 128.58 44.0397 129.01 44.248C129.446 44.4564 129.902 44.5605 130.377 44.5605C130.729 44.5605 131.061 44.502 131.373 44.3848C131.692 44.2676 131.956 44.1048 132.164 43.8965C132.398 43.6686 132.6 43.304 132.77 42.8027L132.965 42.8711C132.796 43.6328 132.431 44.209 131.871 44.5996C131.318 44.9837 130.579 45.1758 129.654 45.1758C128.854 45.1758 128.167 45.0488 127.594 44.7949C127.021 44.541 126.536 44.1504 126.139 43.623C125.585 42.8874 125.309 41.9824 125.309 40.9082C125.309 39.4434 125.833 38.2943 126.881 37.4609C127.643 36.8555 128.512 36.5527 129.488 36.5527C130.009 36.5527 130.491 36.6471 130.934 36.8359C131.376 37.0182 131.751 37.2852 132.057 37.6367C132.532 38.1836 132.77 38.8672 132.77 39.6875H127.037ZM131.314 39.3066C131.269 38.6556 131.148 38.1543 130.953 37.8027C130.777 37.4837 130.543 37.2331 130.25 37.0508C129.957 36.862 129.645 36.7676 129.312 36.7676C128.753 36.7676 128.261 37.0085 127.838 37.4902C127.421 37.972 127.174 38.5775 127.096 39.3066H131.314Z" fill="white"/>
<path d="M71.5586 65H65.1426V64.7754C65.722 64.7233 66.1257 64.6257 66.3535 64.4824C66.7572 64.2285 66.959 63.877 66.959 63.4277C66.959 63.1608 66.8678 62.8027 66.6855 62.3535L66.5195 61.9434L65.582 59.6387H61.2852L60.7773 60.9863L60.5332 61.5918C60.2402 62.3079 60.0938 62.8711 60.0938 63.2812C60.0938 63.5221 60.1458 63.7467 60.25 63.9551C60.3607 64.1634 60.5072 64.3327 60.6895 64.4629C60.9434 64.6387 61.2689 64.7428 61.666 64.7754V65H57.291V64.7754C57.6361 64.7559 57.9388 64.6712 58.1992 64.5215C58.4596 64.3717 58.7135 64.1309 58.9609 63.7988C59.1693 63.5319 59.3711 63.1901 59.5664 62.7734C59.7682 62.3503 60.0319 61.7188 60.3574 60.8789L63.9316 51.6699H64.4883L68.7363 61.9336C69.0553 62.7083 69.3092 63.2617 69.498 63.5938C69.6868 63.9258 69.8919 64.1764 70.1133 64.3457C70.2695 64.4629 70.4486 64.554 70.6504 64.6191C70.8522 64.6777 71.1549 64.7298 71.5586 64.7754V65ZM65.4258 59.2383L63.375 54.1797L61.4414 59.2383H65.4258Z" fill="white"/>
<path d="M71.2168 56.6992H74.9961V56.9043C74.7096 56.9629 74.5143 57.028 74.4102 57.0996C74.2018 57.2298 74.0977 57.4382 74.0977 57.7246C74.0977 57.9004 74.1302 58.1055 74.1953 58.3398C74.2604 58.5742 74.3809 58.916 74.5566 59.3652L76.1387 63.3789L77.7305 59.1992C77.9648 58.5807 78.082 58.1217 78.082 57.8223C78.082 57.4967 77.9811 57.2591 77.7793 57.1094C77.6751 57.0312 77.4831 56.9629 77.2031 56.9043V56.6992H79.8984V56.9043C79.5339 56.9954 79.2409 57.1582 79.0195 57.3926C78.7396 57.6855 78.4173 58.3008 78.0527 59.2383L75.7969 65H75.2695L72.8184 58.9453C72.4408 58.0143 72.1706 57.4512 72.0078 57.2559C71.9167 57.1517 71.8158 57.0768 71.7051 57.0312C71.5944 56.9792 71.4316 56.9368 71.2168 56.9043V56.6992Z" fill="white"/>
<path d="M88.248 64.0527L88.4141 64.1504C88.1797 64.834 87.6426 65.1758 86.8027 65.1758C86.3405 65.1758 85.9564 65.0618 85.6504 64.834C85.4486 64.6842 85.2402 64.4238 85.0254 64.0527C84.5892 64.4434 84.2604 64.7005 84.0391 64.8242C83.6159 65.0586 83.1243 65.1758 82.5645 65.1758C81.8483 65.1758 81.2786 65.0033 80.8555 64.6582C80.4388 64.3132 80.2305 63.8477 80.2305 63.2617C80.2305 62.7214 80.403 62.2689 80.748 61.9043C80.9434 61.7025 81.168 61.543 81.4219 61.4258C81.6758 61.3021 82.0436 61.1784 82.5254 61.0547C83.0918 60.9115 83.5085 60.791 83.7754 60.6934C84.0488 60.5957 84.2767 60.4785 84.459 60.3418C84.6673 60.1921 84.8105 60.0163 84.8887 59.8145C84.9668 59.6126 85.0059 59.3327 85.0059 58.9746C85.0059 58.2129 84.8626 57.6562 84.5762 57.3047C84.446 57.1419 84.2767 57.0117 84.0684 56.9141C83.8665 56.8164 83.6549 56.7676 83.4336 56.7676C83.1667 56.7676 82.929 56.8359 82.7207 56.9727C82.5124 57.1094 82.3561 57.2982 82.252 57.5391L82.0078 58.1055C81.8776 58.4115 81.6432 58.5645 81.3047 58.5645C81.0833 58.5645 80.8978 58.4928 80.748 58.3496C80.5983 58.1999 80.5234 58.0143 80.5234 57.793C80.5234 57.4609 80.7578 57.181 81.2266 56.9531C81.4805 56.8359 81.793 56.7415 82.1641 56.6699C82.5417 56.5918 82.9095 56.5527 83.2676 56.5527C83.6712 56.5527 84.0911 56.6048 84.5273 56.709C84.9635 56.8132 85.3281 56.9466 85.6211 57.1094C86.0443 57.3503 86.3079 57.6628 86.4121 58.0469C86.4642 58.2422 86.4902 58.571 86.4902 59.0332V62.6465C86.4902 63.2585 86.5163 63.6751 86.5684 63.8965C86.679 64.3587 86.946 64.5898 87.3691 64.5898C87.571 64.5898 87.7272 64.554 87.8379 64.4824C87.9551 64.4108 88.0918 64.2676 88.248 64.0527ZM85.0254 60.2051C84.6738 60.498 84.2865 60.7552 83.8633 60.9766C83.388 61.2305 83.0592 61.4225 82.877 61.5527C82.6947 61.6829 82.5286 61.8392 82.3789 62.0215C82.0729 62.3991 81.9199 62.8385 81.9199 63.3398C81.9199 63.7695 82.0371 64.1243 82.2715 64.4043C82.5124 64.6842 82.8151 64.8242 83.1797 64.8242C83.4987 64.8242 83.7982 64.7266 84.0781 64.5312C84.3646 64.3294 84.5794 64.0625 84.7227 63.7305C84.9245 63.2943 85.0254 62.6628 85.0254 61.8359V60.2051Z" fill="white"/>
<path d="M88.541 56.8848L91.3438 56.5332V62.1777L91.3535 62.9199C91.3535 63.3626 91.3796 63.6882 91.4316 63.8965C91.4837 64.0983 91.5846 64.2676 91.7344 64.4043C91.9167 64.5801 92.252 64.7135 92.7402 64.8047V65H88.4336V64.8047C88.8242 64.7526 89.1042 64.681 89.2734 64.5898C89.4427 64.4922 89.5794 64.3294 89.6836 64.1016C89.7552 63.9518 89.804 63.7272 89.8301 63.4277C89.8626 63.1217 89.8789 62.6823 89.8789 62.1094V59.6973C89.8789 59.0267 89.8626 58.5579 89.8301 58.291C89.7975 58.0176 89.7259 57.7962 89.6152 57.627C89.5046 57.4447 89.3711 57.3145 89.2148 57.2363C89.0586 57.1517 88.834 57.0996 88.541 57.0801V56.8848ZM90.5723 53.0469C90.3184 53.0469 90.1068 52.9655 89.9375 52.8027C89.7747 52.64 89.6934 52.4349 89.6934 52.1875C89.6934 51.9466 89.778 51.7448 89.9473 51.582C90.1165 51.4128 90.3249 51.3281 90.5723 51.3281C90.8197 51.3281 91.028 51.4128 91.1973 51.582C91.3665 51.7448 91.4512 51.9466 91.4512 52.1875C91.4512 52.4349 91.3665 52.64 91.1973 52.8027C91.0345 52.9655 90.8262 53.0469 90.5723 53.0469Z" fill="white"/>
<path d="M93.3848 51.6309L96.1875 51.2793V62.1777L96.1973 62.9199C96.1973 63.3626 96.2233 63.6882 96.2754 63.8965C96.3275 64.0983 96.4284 64.2676 96.5781 64.4043C96.7604 64.5801 97.0957 64.7135 97.584 64.8047V65H93.2773V64.8047C93.668 64.7526 93.9479 64.681 94.1172 64.5898C94.2865 64.4922 94.4232 64.3294 94.5273 64.1016C94.599 63.9518 94.6478 63.7272 94.6738 63.4277C94.7064 63.1217 94.7227 62.6823 94.7227 62.1094V54.4434C94.7227 53.7793 94.7064 53.3105 94.6738 53.0371C94.6413 52.7637 94.5697 52.5423 94.459 52.373C94.3483 52.1908 94.2148 52.0605 94.0586 51.9824C93.9023 51.9043 93.6777 51.8555 93.3848 51.8359V51.6309Z" fill="white"/>
<path d="M106.471 64.0527L106.637 64.1504C106.402 64.834 105.865 65.1758 105.025 65.1758C104.563 65.1758 104.179 65.0618 103.873 64.834C103.671 64.6842 103.463 64.4238 103.248 64.0527C102.812 64.4434 102.483 64.7005 102.262 64.8242C101.839 65.0586 101.347 65.1758 100.787 65.1758C100.071 65.1758 99.5013 65.0033 99.0781 64.6582C98.6615 64.3132 98.4531 63.8477 98.4531 63.2617C98.4531 62.7214 98.6257 62.2689 98.9707 61.9043C99.166 61.7025 99.3906 61.543 99.6445 61.4258C99.8984 61.3021 100.266 61.1784 100.748 61.0547C101.314 60.9115 101.731 60.791 101.998 60.6934C102.271 60.5957 102.499 60.4785 102.682 60.3418C102.89 60.1921 103.033 60.0163 103.111 59.8145C103.189 59.6126 103.229 59.3327 103.229 58.9746C103.229 58.2129 103.085 57.6562 102.799 57.3047C102.669 57.1419 102.499 57.0117 102.291 56.9141C102.089 56.8164 101.878 56.7676 101.656 56.7676C101.389 56.7676 101.152 56.8359 100.943 56.9727C100.735 57.1094 100.579 57.2982 100.475 57.5391L100.23 58.1055C100.1 58.4115 99.8659 58.5645 99.5273 58.5645C99.306 58.5645 99.1204 58.4928 98.9707 58.3496C98.821 58.1999 98.7461 58.0143 98.7461 57.793C98.7461 57.4609 98.9805 57.181 99.4492 56.9531C99.7031 56.8359 100.016 56.7415 100.387 56.6699C100.764 56.5918 101.132 56.5527 101.49 56.5527C101.894 56.5527 102.314 56.6048 102.75 56.709C103.186 56.8132 103.551 56.9466 103.844 57.1094C104.267 57.3503 104.531 57.6628 104.635 58.0469C104.687 58.2422 104.713 58.571 104.713 59.0332V62.6465C104.713 63.2585 104.739 63.6751 104.791 63.8965C104.902 64.3587 105.169 64.5898 105.592 64.5898C105.794 64.5898 105.95 64.554 106.061 64.4824C106.178 64.4108 106.314 64.2676 106.471 64.0527ZM103.248 60.2051C102.896 60.498 102.509 60.7552 102.086 60.9766C101.611 61.2305 101.282 61.4225 101.1 61.5527C100.917 61.6829 100.751 61.8392 100.602 62.0215C100.296 62.3991 100.143 62.8385 100.143 63.3398C100.143 63.7695 100.26 64.1243 100.494 64.4043C100.735 64.6842 101.038 64.8242 101.402 64.8242C101.721 64.8242 102.021 64.7266 102.301 64.5312C102.587 64.3294 102.802 64.0625 102.945 63.7305C103.147 63.2943 103.248 62.6628 103.248 61.8359V60.2051Z" fill="white"/>
<path d="M109.508 57.7734C109.781 57.4349 110.042 57.1842 110.289 57.0215C110.79 56.7025 111.389 56.543 112.086 56.543C113.076 56.543 113.938 56.8587 114.674 57.4902C115.585 58.265 116.041 59.3587 116.041 60.7715C116.041 62.1842 115.605 63.2975 114.732 64.1113C113.977 64.821 113.01 65.1758 111.832 65.1758C111.214 65.1758 110.689 65.0911 110.26 64.9219L109.713 64.6973C109.563 64.6387 109.43 64.6094 109.312 64.6094C108.98 64.6094 108.688 64.8796 108.434 65.4199H108.043V53.9648C108.043 53.2357 107.926 52.7148 107.691 52.4023C107.464 52.0833 107.076 51.9238 106.529 51.9238V51.6895L109.508 51.2793V57.7734ZM109.508 60.7324C109.508 61.429 109.547 62.0703 109.625 62.6562C109.703 63.2422 109.804 63.6686 109.928 63.9355C110.077 64.2546 110.299 64.5052 110.592 64.6875C110.891 64.8698 111.23 64.9609 111.607 64.9609C112.402 64.9609 113.056 64.5833 113.57 63.8281C114.091 63.0729 114.352 62.1126 114.352 60.9473C114.352 60.3353 114.267 59.7559 114.098 59.209C113.928 58.6556 113.688 58.1868 113.375 57.8027C113.128 57.4837 112.854 57.2428 112.555 57.0801C112.255 56.9108 111.949 56.8262 111.637 56.8262C111.259 56.8262 110.908 56.9434 110.582 57.1777C110.257 57.4056 110.016 57.7051 109.859 58.0762C109.625 58.623 109.508 59.5085 109.508 60.7324Z" fill="white"/>
<path d="M117.018 51.6309L119.82 51.2793V62.1777L119.83 62.9199C119.83 63.3626 119.856 63.6882 119.908 63.8965C119.96 64.0983 120.061 64.2676 120.211 64.4043C120.393 64.5801 120.729 64.7135 121.217 64.8047V65H116.91V64.8047C117.301 64.7526 117.581 64.681 117.75 64.5898C117.919 64.4922 118.056 64.3294 118.16 64.1016C118.232 63.9518 118.281 63.7272 118.307 63.4277C118.339 63.1217 118.355 62.6823 118.355 62.1094V54.4434C118.355 53.7793 118.339 53.3105 118.307 53.0371C118.274 52.7637 118.202 52.5423 118.092 52.373C117.981 52.1908 117.848 52.0605 117.691 51.9824C117.535 51.9043 117.311 51.8555 117.018 51.8359V51.6309Z" fill="white"/>
<path d="M123.814 59.6875C123.788 60.0065 123.775 60.2376 123.775 60.3809C123.775 60.9473 123.857 61.5007 124.02 62.041C124.189 62.5814 124.417 63.0306 124.703 63.3887C124.996 63.7533 125.357 64.0397 125.787 64.248C126.223 64.4564 126.679 64.5605 127.154 64.5605C127.506 64.5605 127.838 64.502 128.15 64.3848C128.469 64.2676 128.733 64.1048 128.941 63.8965C129.176 63.6686 129.378 63.304 129.547 62.8027L129.742 62.8711C129.573 63.6328 129.208 64.209 128.648 64.5996C128.095 64.9837 127.356 65.1758 126.432 65.1758C125.631 65.1758 124.944 65.0488 124.371 64.7949C123.798 64.541 123.313 64.1504 122.916 63.623C122.363 62.8874 122.086 61.9824 122.086 60.9082C122.086 59.4434 122.61 58.2943 123.658 57.4609C124.42 56.8555 125.289 56.5527 126.266 56.5527C126.786 56.5527 127.268 56.6471 127.711 56.8359C128.154 57.0182 128.528 57.2852 128.834 57.6367C129.309 58.1836 129.547 58.8672 129.547 59.6875H123.814ZM128.092 59.3066C128.046 58.6556 127.926 58.1543 127.73 57.8027C127.555 57.4837 127.32 57.2331 127.027 57.0508C126.734 56.862 126.422 56.7676 126.09 56.7676C125.53 56.7676 125.038 57.0085 124.615 57.4902C124.199 57.972 123.951 58.5775 123.873 59.3066H128.092Z" fill="white"/>
</svg>
