<svg width="31" height="31" viewBox="0 0 31 31" fill="none" xmlns="http://www.w3.org/2000/svg">
<path d="M11.8922 0.366486C14.7936 0.366486 17.5763 1.53569 19.6279 3.61688C21.6796 5.69808 22.8322 8.52079 22.8322 11.464C22.8322 14.2128 21.8392 16.7397 20.2066 18.686L20.661 19.147H21.9906L30.406 27.6836L27.8814 30.2445L19.466 21.7079V20.3592L19.0116 19.8982C17.0929 21.5543 14.6019 22.5616 11.8922 22.5616C8.99069 22.5616 6.20805 21.3924 4.1564 19.3112C2.10475 17.23 0.952148 14.4073 0.952148 11.464C0.952148 8.52079 2.10475 5.69808 4.1564 3.61688C6.20805 1.53569 8.99069 0.366486 11.8922 0.366486ZM11.8922 3.78112C7.68446 3.78112 4.31831 7.19575 4.31831 11.464C4.31831 15.7323 7.68446 19.147 11.8922 19.147C16.0999 19.147 19.466 15.7323 19.466 11.464C19.466 7.19575 16.0999 3.78112 11.8922 3.78112Z" fill="white"/>
</svg>
