<svg width="19" height="19" viewBox="0 0 19 19" fill="none" xmlns="http://www.w3.org/2000/svg">
<path d="M16.7212 0.659698H14.0212H5.42119H2.72119C2.19076 0.659698 1.68205 0.870412 1.30698 1.24548C0.931905 1.62056 0.721191 2.12927 0.721191 2.6597V5.3597V14.0597V16.6597C0.721191 17.1901 0.931905 17.6988 1.30698 18.0739C1.68205 18.449 2.19076 18.6597 2.72119 18.6597H5.42119H14.1212H16.7212C17.2516 18.6597 17.7603 18.449 18.1354 18.0739C18.5105 17.6988 18.7212 17.1901 18.7212 16.6597V13.9597V5.3597V2.6597C18.7212 2.12927 18.5105 1.62056 18.1354 1.24548C17.7603 0.870412 17.2516 0.659698 16.7212 0.659698ZM13.3212 14.6597L9.72119 11.0597L6.12119 14.6597L4.72119 13.2597L8.32119 9.6597L4.72119 6.0597L6.12119 4.6597L9.72119 8.2597L13.3212 4.6597L14.7212 6.0597L11.1212 9.6597L14.7212 13.2597L13.3212 14.6597Z" fill="#C87274"/>
</svg>
